<?xml version="1.0" encoding="UTF-8" standalone="no"?>
<!-- Created with Inkscape (http://www.inkscape.org/) -->

<svg
   xmlns:dc="http://purl.org/dc/elements/1.1/"
   xmlns:cc="http://creativecommons.org/ns#"
   xmlns:rdf="http://www.w3.org/1999/02/22-rdf-syntax-ns#"
   xmlns:svg="http://www.w3.org/2000/svg"
   xmlns="http://www.w3.org/2000/svg"
   xmlns:sodipodi="http://sodipodi.sourceforge.net/DTD/sodipodi-0.dtd"
   xmlns:inkscape="http://www.inkscape.org/namespaces/inkscape"
   version="1.1"
   id="svg2"
   width="500"
   height="500"
   viewBox="0 0 500.00001 500"
   sodipodi:docname="icon_aerovigne.svg"
   inkscape:version="0.92.4 (5da689c313, 2019-01-14)">
  <metadata
     id="metadata8">
    <rdf:RDF>
      <cc:Work
         rdf:about="">
        <dc:format>image/svg+xml</dc:format>
        <dc:type
           rdf:resource="http://purl.org/dc/dcmitype/StillImage" />
        <dc:title></dc:title>
      </cc:Work>
    </rdf:RDF>
  </metadata>
  <defs
     id="defs6" />
  <sodipodi:namedview
     pagecolor="#ffffff"
     bordercolor="#666666"
     borderopacity="1"
     objecttolerance="10"
     gridtolerance="10"
     guidetolerance="10"
     inkscape:pageopacity="0"
     inkscape:pageshadow="2"
     inkscape:window-width="1920"
     inkscape:window-height="1017"
     id="namedview4"
     showgrid="true"
     fit-margin-top="0"
     fit-margin-left="0"
     fit-margin-right="0"
     fit-margin-bottom="0"
     inkscape:zoom="0.83572319"
     inkscape:cx="284.08845"
     inkscape:cy="62.802764"
     inkscape:window-x="-8"
     inkscape:window-y="-8"
     inkscape:window-maximized="1"
     inkscape:current-layer="svg2">
    <inkscape:grid
       type="xygrid"
       id="grid18" />
  </sodipodi:namedview>
  <path
     style="fill:#000000;stroke-width:1.64472783"
     d="M 180.54228,481.59332 C 102.06475,460.24674 35.100905,396.14152 11.311965,319.58726 0.2203554,283.89378 -2.8233846,244.98638 2.6623554,209.02135 c 4.48598,-29.41054 9.9792896,-47.57046 21.5539296,-71.25357 12.52468,-25.62701 25.6721,-43.552181 48.47674,-66.093154 37.703785,-37.26784 73.732255,-56.93902 124.079405,-67.7460998 22.77365,-4.88839003 79.73333,-5.3032 102.50307,-0.74647 35.4682,7.0979698 71.67582,22.8193198 98.41626,42.7323398 7.66898,5.71092 22.48996,19.15107 32.93551,29.86697 28.02899,28.754464 43.96575,54.087784 55.31671,87.932324 8.10449,24.1646 14.07661,58.51883 14.05597,80.85578 -0.0155,14.93876 -5.543,53.21843 -10.00755,69.28474 -14.66174,52.76197 -53.09407,103.70988 -103.72408,137.502 -21.68607,14.47399 -60.5277,30.32725 -83.05966,33.90088 l -6.33743,1.00518 4.63587,-10.12942 4.63587,-10.12944 16.69222,-5.55465 c 35.79338,-11.91097 63.82044,-29.12999 90.52252,-55.6145 34.38212,-34.10197 56.50803,-76.29049 64.29569,-122.59551 3.11281,-18.5088 3.54276,-54.10357 0.85649,-70.90588 -11.86323,-74.20269 -57.0008,-136.054194 -123.59378,-169.359174 -105.04603,-52.53642 -232.03325,-20.12 -297.365585,75.909444 -29.02747,42.66634 -43.52023,98.34397 -38.2197,146.83067 6.13,56.07433 27.67867,101.26196 66.85484,140.1948 30.757835,30.56678 58.065175,46.13607 106.217075,60.55966 1.13539,0.34009 2.06434,1.62224 2.06434,2.84919 0,1.22694 1.75683,5.67271 3.90406,9.87949 l 3.90406,7.64865 -3.49119,-0.12029 c -1.92015,-0.066 -10.12893,-1.92554 -18.24173,-4.1323 z m -5.0671,-27.01272 C 121.88334,436.59068 73.438585,394.53446 47.605315,343.5733 c -9.31317,-18.37206 -17.4356,-43.26991 -20.86374,-63.95411 -4.03247,-24.33053 -2.59288,-63.36896 3.17722,-86.15896 10.40764,-41.10678 27.14748,-71.49746 56.08265,-101.816404 30.904325,-32.38226 70.975195,-54.5662 116.857115,-64.69416 22.35534,-4.93471 66.75203,-5.36664 89.44328,-0.87018 43.52954,8.62574 83.78524,29.58886 115.1273,59.95241 19.21934,18.619324 32.94343,37.474194 44.76295,61.497744 25.69819,52.23232 29.8424,109.26691 12.00817,165.26229 -17.57887,55.19353 -62.16765,105.97977 -115.30217,131.32822 -9.60026,4.5799 -38.93269,15.51725 -41.61512,15.51725 -0.28375,0 -0.51593,-1.32229 -0.51593,-2.9384 0,-2.24552 3.39462,-4.0349 14.39584,-7.58841 31.19843,-10.07741 58.40209,-27.08383 83.89921,-52.44974 33.21151,-33.04058 52.42846,-69.11272 61.1621,-114.80733 3.64289,-19.05953 3.733,-53.90418 0.19095,-73.74685 C 452.58828,130.65391 397.8371,66.772666 322.76715,40.504796 c -45.87586,-16.0525 -95.67603,-16.69322 -141.55975,-1.82129 -30.85516,10.00083 -60.62832,27.67892 -83.854925,49.78964 -68.42187,65.134624 -86.9692,163.789534 -46.59681,247.852664 25.71935,53.5527 68.971385,92.13281 126.329925,112.68424 9.41323,3.37273 15.10101,6.31413 15.43824,7.98376 0.70065,3.46884 0.30856,3.41334 -17.04865,-2.41321 z m 5.80007,-283.30063 c -31.99915,-1.5203 -35.67835,-1.426 -37.43696,0.95944 -1.09924,1.49105 -3.63022,2.40944 -5.80007,2.1046 -3.80028,-0.53387 -3.84316,-0.77052 -3.33428,-18.40193 l 0.51552,-17.86036 -18.68167,1.09638 c -10.27494,0.60291 -24.441195,1.5596 -31.480585,2.12587 l -12.79889,1.02958 v -7.80537 -7.80537 l 27.662118,1.35987 c 34.616247,1.70174 44.215267,1.70404 77.619077,0.0184 l 26.83639,-1.35407 v 7.79288 7.79287 l -11.14742,-0.99503 c -6.13108,-0.54736 -19.91998,-1.50089 -30.642,-2.11895 l -19.49458,-1.12375 0.50267,9.66429 0.50267,9.66429 22.29484,-0.54253 c 12.26216,-0.29837 36.04333,-1.16039 52.84703,-1.91557 17.08801,-0.76795 46.19976,-0.73019 66.05879,0.0856 76.76782,3.15382 70.61915,3.21366 71.67743,-0.69757 0.51818,-1.91513 0.95231,-6.47751 0.96471,-10.13862 l 0.0227,-6.65657 -10.32169,0.60011 c -5.67693,0.33006 -19.23962,1.24339 -30.13933,2.02965 -10.8997,0.78624 -20.4257,0.84464 -21.1689,0.12976 -0.74319,-0.71487 -1.11477,-4.16105 -0.82573,-7.65818 l 0.52553,-6.35841 17.34043,0.81901 c 9.53724,0.45045 31.4605,0.81901 48.71836,0.81901 17.25786,0 39.10798,-0.36856 48.55584,-0.81901 l 17.17791,-0.81901 -0.0134,7.37106 -0.0134,7.37106 -10.55964,-0.5312 c -5.8059,-0.29213 -19.47568,-1.08672 -30.37538,-1.76572 -10.8997,-0.679 -20.22957,-1.03844 -20.73305,-0.79876 -0.50344,0.23967 -0.28529,6.93112 0.48481,14.86986 1.72829,17.81624 0.90999,21.80513 -4.47319,21.80513 -2.20833,0 -4.63696,-1.10208 -5.39697,-2.44904 -68.87243,1.10444 -114.99039,1.95886 -175.46969,-0.8937 z"
     id="path12"
     inkscape:connector-curvature="0"
     sodipodi:nodetypes="csssssssscccscccccscssssscscccccsssssssssscssssccssssscscsccccscccscccccsccccsccccscsscsssccccsccscc" />
  <circle
     style="fill:#000000;fill-opacity:1;fill-rule:nonzero;stroke:#000000;stroke-width:1.17385328;stroke-opacity:1"
     id="path16"
     cx="185"
     cy="360"
     r="45" />
  <circle
     style="fill:#000000;fill-opacity:1;fill-rule:nonzero;stroke:#000000;stroke-width:1.17385328;stroke-opacity:1"
     id="path16-8"
     cx="125"
     cy="260"
     r="45" />
  <circle
     style="fill:#000000;fill-opacity:1;fill-rule:nonzero;stroke:#000000;stroke-width:1.17385328;stroke-opacity:1"
     id="path16-4"
     cx="250"
     cy="455"
     r="45" />
  <circle
     style="fill:#000000;fill-opacity:1;fill-rule:nonzero;stroke:#000000;stroke-width:1.17385328;stroke-opacity:1"
     id="path16-3"
     cx="250"
     cy="260"
     r="45" />
  <circle
     style="fill:#000000;fill-opacity:1;fill-rule:nonzero;stroke:#000000;stroke-width:1.17385328;stroke-opacity:1"
     id="path16-9"
     cx="375"
     cy="260"
     r="45" />
  <circle
     style="fill:#000000;fill-opacity:1;fill-rule:nonzero;stroke:#000000;stroke-width:1.17385328;stroke-opacity:1"
     id="path16-44"
     cx="315"
     cy="360"
     r="45" />
  <circle
     style="fill:#000000;fill-opacity:1;fill-rule:nonzero;stroke:#000000;stroke-width:1.05036318;stroke-opacity:1"
     id="path3776"
     cx="250"
     cy="185"
     r="10" />
  <circle
     style="fill:none;fill-opacity:1;fill-rule:nonzero;stroke:#000000;stroke-width:7;stroke-opacity:1"
     id="path3778"
     cx="250"
     cy="185"
     r="20" />
</svg>
