<?xml version="1.0" encoding="UTF-8" standalone="no"?>
<!-- Created with Inkscape (http://www.inkscape.org/) -->

<svg
   xmlns:dc="http://purl.org/dc/elements/1.1/"
   xmlns:cc="http://creativecommons.org/ns#"
   xmlns:rdf="http://www.w3.org/1999/02/22-rdf-syntax-ns#"
   xmlns:svg="http://www.w3.org/2000/svg"
   xmlns="http://www.w3.org/2000/svg"
   xmlns:sodipodi="http://sodipodi.sourceforge.net/DTD/sodipodi-0.dtd"
   xmlns:inkscape="http://www.inkscape.org/namespaces/inkscape"
   width="1500"
   height="500"
   viewBox="0 0 396.87498 132.29167"
   version="1.1"
   id="svg8"
   inkscape:version="0.92.4 (5da689c313, 2019-01-14)"
   sodipodi:docname="icon_twitterliked.svg">
  <defs
     id="defs2" />
  <sodipodi:namedview
     id="base"
     pagecolor="#ffffff"
     bordercolor="#666666"
     borderopacity="1.0"
     inkscape:pageopacity="0.0"
     inkscape:pageshadow="2"
     inkscape:zoom="0.7"
     inkscape:cx="518.85008"
     inkscape:cy="204.32916"
     inkscape:document-units="mm"
     inkscape:current-layer="layer1"
     showgrid="true"
     units="px"
     inkscape:window-width="1920"
     inkscape:window-height="1017"
     inkscape:window-x="-8"
     inkscape:window-y="-8"
     inkscape:window-maximized="1">
    <inkscape:grid
       type="xygrid"
       id="grid83" />
  </sodipodi:namedview>
  <metadata
     id="metadata5">
    <rdf:RDF>
      <cc:Work
         rdf:about="">
        <dc:format>image/svg+xml</dc:format>
        <dc:type
           rdf:resource="http://purl.org/dc/dcmitype/StillImage" />
        <dc:title></dc:title>
      </cc:Work>
    </rdf:RDF>
  </metadata>
  <g
     inkscape:label="Calque 1"
     inkscape:groupmode="layer"
     id="layer1"
     transform="translate(0,-164.70832)">
    <path
       style="fill:#000000;stroke-width:0.28548953"
       d="m 273.13173,270.42876 c -5.67358,-9.89787 -10.37061,-18.15209 -10.43785,-18.3427 -0.15244,-0.43217 39.60642,-70.01624 39.98434,-69.97867 0.35392,0.0352 21.00493,36.12869 20.90528,36.53791 -0.13712,0.56311 -39.75467,69.75484 -39.94712,69.76733 -0.10398,0.007 -4.83107,-8.08599 -10.50465,-17.98387 z m 21.1475,17.35477 c 1.18115,-2.23457 20.09511,-35.2551 20.36019,-35.54542 0.25952,-0.28423 8.55928,-0.34297 40.33622,-0.2855 l 40.00948,0.0724 -10.36168,18.12858 -10.36167,18.12859 -40.16131,0.0724 -40.16129,0.0724 z m 34.5108,-78.1742 c -11.38389,-19.94147 -20.73952,-36.44531 -20.79029,-36.6752 -0.0804,-0.36408 2.60659,-0.41668 20.84074,-0.40789 l 20.93303,0.0101 19.98427,35.00907 c 10.99136,19.25499 20.40923,35.75888 20.92864,36.67532 l 0.94438,1.66625 -21.07139,-0.0102 -21.07138,-0.0102 z"
       id="path817"
       inkscape:connector-curvature="0" />
    <rect
       class="cls-1"
       width="105.83334"
       height="105.83334"
       id="rect8"
       x="2.5473416"
       y="188.57352"
       style="fill:none;stroke-width:0.26458332" />
    <path
       class="cls-2"
       d="m 42.47655,283.73701 c 49.92158,0 77.22658,-41.35967 77.22658,-77.22659 0,-1.17475 0,-2.34421 -0.0794,-3.50837 a 55.223833,55.223833 0 0 0 13.54138,-14.04938 54.176083,54.176083 0 0 1 -15.58925,4.27038 27.236208,27.236208 0 0 0 11.9327,-15.01246 54.393042,54.393042 0 0 1 -17.23495,6.58812 27.167417,27.167417 0 0 0 -46.25445,24.75442 77.05725,77.05725 0 0 1 -55.93822,-28.35804 27.162125,27.162125 0 0 0 8.40316,36.23204 26.939875,26.939875 0 0 1 -12.31899,-3.39725 c 0,0.11113 0,0.22754 0,0.34396 a 27.151542,27.151542 0 0 0 21.7752,26.6065 27.098625,27.098625 0 0 1 -12.2555,0.46567 27.172708,27.172708 0 0 0 25.35768,18.84891 54.461833,54.461833 0 0 1 -33.70792,11.64167 55.250292,55.250292 0 0 1 -6.46112,-0.39158 76.840292,76.840292 0 0 0 41.60308,12.17083"
       id="path10"
       style="fill:#000000;stroke-width:0.52916664"
       inkscape:connector-curvature="0" />
    <path
       style="fill:#000000;stroke-width:0.62325907"
       d="m 191.66507,290.061 c -11.29391,-5.42863 -21.67539,-13.33615 -33.00829,-25.14224 -8.00365,-8.33783 -13.85936,-16.34199 -18.56855,-25.38131 -4.14784,-7.9618 -6.21576,-14.11773 -7.58238,-22.57175 -0.94934,-5.87273 -0.95477,-6.8774 -0.0648,-11.99062 3.09833,-17.80137 18.12385,-30.55394 35.93759,-30.50123 10.31724,0.0305 19.09322,3.77865 26.03799,11.1205 l 3.56682,3.77074 3.55767,-3.76534 c 13.74064,-14.54271 36.68844,-15.00323 51.2104,-1.0277 6.13488,5.90404 9.86188,13.2571 11.05026,21.80124 1.22729,8.82391 -1.72293,21.13681 -7.94627,33.16416 -11.20692,21.65871 -34.61107,43.70159 -55.77642,52.53223 -2.23823,0.93383 -2.34563,0.9082 -8.414,-2.00868 z"
       id="path12"
       inkscape:connector-curvature="0"
       x="0
" />
  </g>
</svg>
