<?xml version="1.0" encoding="UTF-8" standalone="no"?>
<!-- Created with Inkscape (http://www.inkscape.org/) -->

<svg
   xmlns:dc="http://purl.org/dc/elements/1.1/"
   xmlns:cc="http://creativecommons.org/ns#"
   xmlns:rdf="http://www.w3.org/1999/02/22-rdf-syntax-ns#"
   xmlns:svg="http://www.w3.org/2000/svg"
   xmlns="http://www.w3.org/2000/svg"
   xmlns:sodipodi="http://sodipodi.sourceforge.net/DTD/sodipodi-0.dtd"
   xmlns:inkscape="http://www.inkscape.org/namespaces/inkscape"
   width="500"
   height="500"
   viewBox="0 0 132.29166 132.29167"
   version="1.1"
   id="svg3739"
   inkscape:export-filename="C:\Users\bgavalda\Documents\Workshop\image.png"
   inkscape:export-xdpi="96"
   inkscape:export-ydpi="96"
   inkscape:version="0.92.4 (5da689c313, 2019-01-14)"
   sodipodi:docname="dessin.svg">
  <defs
     id="defs3733" />
  <sodipodi:namedview
     id="base"
     pagecolor="#ffffff"
     bordercolor="#666666"
     borderopacity="1.0"
     inkscape:pageopacity="0.0"
     inkscape:pageshadow="2"
     inkscape:zoom="0.49497475"
     inkscape:cx="29.948318"
     inkscape:cy="-143.91774"
     inkscape:document-units="mm"
     inkscape:current-layer="layer1"
     showgrid="false"
     units="px"
     inkscape:window-width="1920"
     inkscape:window-height="1017"
     inkscape:window-x="-8"
     inkscape:window-y="-8"
     inkscape:window-maximized="1" />
  <metadata
     id="metadata3736">
    <rdf:RDF>
      <cc:Work
         rdf:about="">
        <dc:format>image/svg+xml</dc:format>
        <dc:type
           rdf:resource="http://purl.org/dc/dcmitype/StillImage" />
        <dc:title></dc:title>
      </cc:Work>
    </rdf:RDF>
  </metadata>
  <g
     inkscape:label="Calque 1"
     inkscape:groupmode="layer"
     id="layer1"
     transform="translate(0,-164.70832)">
    <path
       id="path3766"
       style="fill:#000000;stroke-width:0.31088272"
       d="m 107.73158,256.20281 c -0.30597,-0.34783 -11.504961,-19.65843 -24.886685,-42.91248 l -24.330397,-42.28004 12.29594,-0.0868 c 11.483034,-0.081 12.323457,-0.0503 12.712121,0.46633 0.698424,0.9283 48.908751,85.01152 48.802501,85.11602 -0.0545,0.0537 -5.48527,0.14975 -12.06821,0.2135 -11.72073,0.11351 -11.98052,0.10284 -12.52527,-0.5165 z M 26.208112,289.8084 c 0.334035,-0.55569 3.090001,-5.38216 6.124368,-10.72545 l 5.517031,-9.71508 h 47.061933 c 25.884056,0 47.061926,0.0879 47.061926,0.19531 0,0.1074 -2.65531,4.84118 -5.90068,10.51948 l -5.90066,10.32421 -11.24873,0.20595 c -6.18679,0.11326 -27.465316,0.20596 -47.285616,0.20596 H 25.600772 Z m -14.52859,-0.0241 c -1.292073,-1.99627 -11.71308928,-19.98037 -11.71308928,-20.21387 0,-0.36842 46.69992928,-82.17948 46.90553228,-82.17124 0.322849,0.0129 12.162185,21.0408 12.162185,21.60128 0,0.35794 -4.121129,7.72608 -15.995627,28.59854 -19.109654,33.59006 -30.126066,52.87543 -30.342676,53.11798 -0.1316,0.14735 -0.588946,-0.27234 -1.016325,-0.93265 z"
       inkscape:connector-curvature="0" />
    <path
       class="cls-2"
       d="m 58.207231,265.21618 c 12.551391,0 19.416474,-10.39874 19.416474,-19.41647 0,-0.29536 0,-0.58939 -0.01999,-0.88209 a 13.884492,13.884492 0 0 0 3.404604,-3.53231 13.621065,13.621065 0 0 1 -3.919485,1.07366 6.8477846,6.8477846 0 0 0 3.000151,-3.77446 13.675613,13.675613 0 0 1 -4.333256,1.6564 6.8304891,6.8304891 0 0 0 -11.629392,6.2238 19.373895,19.373895 0 0 1 -14.064106,-7.12983 6.8291586,6.8291586 0 0 0 2.112736,9.10953 6.77328,6.77328 0 0 1 -3.097264,-0.85414 c 0,0.0279 0,0.0573 0,0.0865 a 6.8264977,6.8264977 0 0 0 5.47477,6.68946 6.8131932,6.8131932 0 0 1 -3.081304,0.11708 6.8318194,6.8318194 0 0 0 6.37549,4.73903 13.692908,13.692908 0 0 1 -8.474921,2.92697 13.891144,13.891144 0 0 1 -1.624475,-0.0985 19.319348,19.319348 0 0 0 10.459946,3.06002"
       id="path10"
       style="fill:#000000;stroke-width:0.13304418"
       inkscape:connector-curvature="0" />
    <path
       style="fill:#000000;stroke-width:0.07134365"
       d="m 80.088986,238.68451 c -1.292795,-0.6214 -2.481157,-1.52657 -3.778418,-2.878 -0.916159,-0.95442 -1.586454,-1.87065 -2.12551,-2.90537 -0.4748,-0.91137 -0.711512,-1.61603 -0.867946,-2.58376 -0.108669,-0.67224 -0.109294,-0.78725 -0.0073,-1.37254 0.354658,-2.03771 2.074611,-3.49748 4.113721,-3.49145 1.181003,0.003 2.185582,0.43254 2.980537,1.27296 l 0.408295,0.43163 0.407243,-0.43101 c 1.572868,-1.66468 4.199674,-1.71741 5.861982,-0.11765 0.702257,0.67584 1.128875,1.51753 1.264914,2.49557 0.140485,1.01007 -0.197224,2.4195 -0.9096,3.79625 -1.282842,2.47924 -3.961889,5.00247 -6.384662,6.0133 -0.256202,0.10689 -0.268497,0.104 -0.963133,-0.22993 z"
       id="path12"
       inkscape:connector-curvature="0"
       x="0 " />
  </g>
</svg>
