<?xml version="1.0" encoding="UTF-8" standalone="no"?>
<!-- Created with Inkscape (http://www.inkscape.org/) -->

<svg
   xmlns:dc="http://purl.org/dc/elements/1.1/"
   xmlns:cc="http://creativecommons.org/ns#"
   xmlns:rdf="http://www.w3.org/1999/02/22-rdf-syntax-ns#"
   xmlns:svg="http://www.w3.org/2000/svg"
   xmlns="http://www.w3.org/2000/svg"
   xmlns:sodipodi="http://sodipodi.sourceforge.net/DTD/sodipodi-0.dtd"
   xmlns:inkscape="http://www.inkscape.org/namespaces/inkscape"
   version="1.1"
   id="svg2"
   width="500"
   height="500"
   viewBox="0 0 500 500"
   sodipodi:docname="icon_arcanes.svg"
   inkscape:version="0.92.4 (5da689c313, 2019-01-14)">
  <metadata
     id="metadata8">
    <rdf:RDF>
      <cc:Work
         rdf:about="">
        <dc:format>image/svg+xml</dc:format>
        <dc:type
           rdf:resource="http://purl.org/dc/dcmitype/StillImage" />
        <dc:title></dc:title>
      </cc:Work>
    </rdf:RDF>
  </metadata>
  <defs
     id="defs6" />
  <sodipodi:namedview
     pagecolor="#ffffff"
     bordercolor="#666666"
     borderopacity="1"
     objecttolerance="10"
     gridtolerance="10"
     guidetolerance="10"
     inkscape:pageopacity="0"
     inkscape:pageshadow="2"
     inkscape:window-width="1920"
     inkscape:window-height="1017"
     id="namedview4"
     showgrid="false"
     inkscape:zoom="1.1570395"
     inkscape:cx="41.421165"
     inkscape:cy="216.84131"
     inkscape:window-x="-8"
     inkscape:window-y="-8"
     inkscape:window-maximized="1"
     inkscape:current-layer="svg2"
     fit-margin-top="0"
     fit-margin-left="0"
     fit-margin-right="0"
     fit-margin-bottom="0" />
  <path
     style="fill:#000000;stroke-width:0.41218162"
     d="m 4.55172,498.56578 c -5.58191,-13.06082 7.60441,-43.74134 37.09463,-86.30776 3.23196,-4.66509 6.1018,-8.79149 6.37743,-9.16994 0.42195,-0.57928 0.0331,-1.39426 -2.4621,-5.15777 C 35.29273,382.44045 24.31224,360.51485 17.12225,341.14316 8.72731,318.52507 3.51706,296.44654 0.75343,271.78011 0.13738,266.28163 0,261.6373 0,246.30819 0,226.18878 0.25283,222.36242 2.54498,207.79466 8.21766,171.74171 22.11375,136.56366 43.67829,103.66547 47.05774,98.50989 47.60744,97.44442 47.1872,96.8642 46.91316,96.4858 44.04458,92.35934 40.81262,87.69431 20.04509,57.71827 6.91037,32.76544 3.3107,16.44962 2.31013,11.91449 2.34099,5.31905 3.3764,2.38912 4.10505,0.32738001 4.28089,0.13708001 5.56881,0.01657001 7.6592,-0.17901999 14.53434,1.38033 20.73193,3.45574 42.163,10.63242 65.99988,24.6816 89.76206,44.14128 l 6.78542,5.55682 8.16612,-3.3263 c 24.69411,-10.05864 49.36823,-17.71067 65.7842,-20.40126 3.92524,-0.64335 7.31549,-0.89843 12.29753,-0.92529 l 6.87827,-0.0373 2.7845,1.2897 c 8.29176,3.84052 10.92822,11.0249 6.46533,17.61811 -0.83491,1.23344 -2.11066,2.03533 -7.01112,4.40695 -10.72059,5.18832 -18.26403,10.35274 -26.35447,18.0429 -9.36779,8.90431 -16.23841,18.67688 -20.47179,29.11851 -1.43841,3.547834 -1.32288,4.300664 1.55764,10.15035 4.33749,8.80847 9.81631,16.34305 17.70883,24.35354 7.72685,7.84234 18.17938,16.05574 27.38739,21.52048 l 4.38962,2.60513 3.23345,-1.44081 c 7.21938,-3.21693 17.29964,-6.01405 26.99476,-7.49064 4.13649,-0.63 7.31141,-0.75889 18.34207,-0.74467 12.25304,0.0157 13.91696,0.1041 20.42639,1.08379 11.58844,1.74411 24.55327,4.92015 33.40516,8.18338 l 3.69585,1.36247 3.75178,-2.23406 c 17.41149,-10.36791 33.04509,-24.95093 42.01705,-39.19351 2.41425,-3.83251 6.12965,-11.4851 6.4172,-13.21746 0.59719,-3.59778 -7.10722,-17.41494 -14.60213,-26.18764 -8.81335,-10.31591 -19.8061,-18.63742 -33.15277,-25.09666 -6.4335,-3.11355 -7.233,-3.81896 -8.58357,-7.57342 -2.01053,-5.58905 0.85973,-10.94897 7.60915,-14.20928 l 3.17163,-1.53206 6.89902,0.0382 c 5.08094,0.028 8.38208,0.28116 12.52671,0.96049 16.69157,2.73587 39.80793,9.92482 65.72447,20.43964 l 7.98864,3.24114 6.81008,-5.55719 C 426.9236,30.1597 443.38464,19.49961 461.05284,11.10959 473.09293,5.39217 485.95666,1.14754 491.61961,1.02353 l 2.78245,-0.0609 0.79283,2.24153 c 2.12353,6.00356 0.19209,17.30914 -5.04721,29.54742 -6.83515,15.96548 -19.27868,37.21026 -34.20012,58.38996 -2.64197,3.74999 -4.80953,7.01016 -4.81675,7.24483 -0.005,0.23467 1.54956,2.80224 3.45968,5.70571 22.81048,34.6731 37.23369,71.38282 42.71193,108.70965 2.0857,14.21118 2.49005,20.21511 2.49005,36.97059 0,11.86776 -0.17604,17.42839 -0.72227,22.82283 -3.47633,34.32675 -12.04852,64.90179 -26.96615,96.18194 -4.36777,9.15871 -10.90305,20.91418 -15.46296,27.81441 l -1.54796,2.34243 7.99998,11.71806 c 19.23731,28.17785 31.24575,50.60623 35.35132,66.02597 1.68297,6.32105 2.04221,13.32773 0.87212,17.01348 l -0.77623,2.4453 -2.27755,0.13386 c -4.05877,0.23879 -12.84913,-1.48037 -21.24492,-4.1547 -21.22286,-6.76024 -44.29461,-19.99687 -66.82206,-38.33699 l -5.33444,-4.3429 -8.00525,3.24788 c -26.02378,10.55842 -48.93508,17.67234 -65.94952,20.47739 -3.94892,0.65102 -7.29107,0.90349 -12.31827,0.93051 l -6.89903,0.0392 -3.17163,-1.5321 c -6.74942,-3.26033 -9.61968,-8.62023 -7.60916,-14.2093 1.35058,-3.75439 2.15009,-4.45984 8.58358,-7.57336 3.29478,-1.59457 7.63561,-3.91415 9.6463,-5.15469 16.90469,-10.42971 30.54687,-25.76418 37.00729,-41.59796 1.61268,-3.95254 1.55181,-4.45238 -1.24929,-10.25804 -8.10742,-16.80366 -24.40449,-33.49754 -44.82666,-45.91815 l -4.96579,-3.02016 -3.14353,1.18342 c -8.65053,3.2566 -23.62756,6.90577 -35.04262,8.53824 -5.62561,0.80449 -8.15997,0.92536 -19.59266,0.93443 -10.80227,0.01 -14.01849,-0.12454 -18.13364,-0.75149 -9.69512,-1.47659 -19.77538,-4.2737 -26.99476,-7.49064 l -3.23345,-1.4408 -4.38962,2.60515 c -9.20801,5.46473 -19.66054,13.67812 -27.38739,21.52048 -7.89252,8.0105 -13.37134,15.54507 -17.70883,24.35354 -2.88053,5.84969 -2.99605,6.6025 -1.55764,10.15036 6.53048,16.10734 20.20743,31.58111 37.08398,41.95585 2.06348,1.26855 6.44751,3.61102 9.74228,5.20554 4.90046,2.37165 6.17621,3.17354 7.01111,4.40693 1.27877,1.88921 2.21521,4.87735 2.2099,7.05174 -0.01,3.90061 -3.52302,8.18001 -8.67522,10.56641 l -2.7845,1.28968 -6.87828,-0.0392 c -4.98203,-0.0294 -8.37228,-0.28194 -12.29752,-0.92526 -16.66708,-2.73175 -40.76548,-10.21131 -65.9524,-20.46999 l -8.00813,-3.26175 -6.16528,5.03578 c -25.03803,20.45107 -48.46748,34.27859 -70.00163,41.31357 -6.10712,1.99512 -12.02185,3.38684 -14.45137,3.40032 -1.42358,0.01 -1.64713,-0.13778 -2.20108,-1.43388 z m 92.60363,-90.45942 c 5.72661,-2.84168 11.74486,-9.21387 13.55193,-14.3488 1.00602,-2.85875 1.0099,-4.06423 0.0181,-5.65419 -1.73149,-2.77603 -4.99713,-2.79834 -10.57754,-0.0726 -7.12871,3.48235 -13.78317,11.79985 -13.83553,17.29321 -0.0196,2.03837 0.10332,2.34453 1.39148,3.47049 1.29991,1.13615 1.60668,1.22108 3.84029,1.06314 1.752,-0.12405 3.31347,-0.6113 5.61119,-1.75152 z m 315.41553,-0.15788 c 1.2077,-1.05496 1.34649,-1.40672 1.34649,-3.41288 0,-7.09033 -10.92702,-18.06892 -19.18974,-19.28029 -3.79388,-0.55624 -6.34789,1.82463 -5.84039,5.44448 0.84463,6.02464 8.62421,14.47732 16.08734,17.47934 3.32083,1.33577 5.8925,1.25771 7.5963,-0.23046 z M 105.25847,350.42622 c 13.10865,-6.42456 25.87811,-17.63649 36.88118,-32.38266 3.62748,-4.86152 9.80772,-14.6151 9.80772,-15.47839 0,-0.24909 -0.92451,-3.15108 -2.05448,-6.44868 -3.51208,-10.24936 -5.80613,-19.81451 -7.60582,-31.7128 -0.83192,-5.50009 -0.95062,-7.88984 -0.95956,-19.31815 -0.008,-10.5858 0.13105,-13.92418 0.73991,-17.72845 1.61638,-10.09948 3.96272,-18.40396 7.43758,-26.32412 l 1.68153,-3.83265 -1.56746,-2.75195 c -7.32386,-12.85831 -19.60309,-27.24023 -30.4285,-35.63906 -5.70336,-4.42491 -13.57895,-9.06877 -19.43088,-11.45747 l -1.53856,-0.62802 -2.88794,4.35029 c -19.86588,29.92533 -29.67277,68.9582 -26.74829,106.46215 2.29822,29.47271 11.73982,59.94067 27.62109,89.13302 3.88318,7.13794 2.94683,6.74935 9.05248,3.75694 z m 298.60531,-1.9709 c 11.1796,-16.46964 19.44345,-36.416 23.84905,-57.56417 4.25815,-20.4404 4.62087,-42.98588 1.03929,-64.59703 -3.27673,-19.77172 -9.52116,-39.28852 -18.95858,-59.25452 -3.49537,-7.39489 -9.75359,-19.15489 -10.19351,-19.15489 -0.79563,0 -10.72075,5.14637 -13.79128,7.15104 -13.82937,9.02888 -28.18568,24.88975 -37.79399,41.75487 l -0.81257,1.42625 1.6179,4.48323 c 3.91447,10.84718 6.92594,23.17121 8.5148,34.84576 0.93397,6.86257 1.06375,27.02913 0.21115,32.80782 -1.51374,10.25957 -3.8453,18.76496 -7.45646,27.20082 l -1.8741,4.378 1.56873,2.75415 c 9.03714,15.8662 23.22088,31.33507 36.81623,40.15187 3.1994,2.0749 13.21294,7.34781 14.4793,7.6245 0.0306,0.005 1.28329,-1.79678 2.78405,-4.0077 z M 258.08917,301.72175 c 11.31738,-1.90956 20.62646,-6.67419 28.9621,-14.82359 10.53853,-10.30306 15.8013,-22.60026 15.8013,-36.92201 0,-14.32175 -5.26277,-26.61897 -15.8013,-36.92203 -10.53853,-10.30305 -23.1168,-15.44823 -37.76587,-15.44823 -8.80465,0 -16.08232,1.67768 -23.92222,5.51464 -18.29192,8.95235 -29.64496,26.89652 -29.64496,46.85562 0,11.00895 3.58274,21.9839 9.98407,30.58404 8.12647,10.91784 20.89563,18.75779 34.41207,21.12822 4.51524,0.79184 13.38188,0.80831 17.97481,0.0343 z M 399.0909,112.80418 c 7.26033,-3.50691 13.99274,-11.87265 13.99274,-17.38747 0,-2.02309 -0.13346,-2.35326 -1.39788,-3.45777 -1.28317,-1.12089 -1.59708,-1.20701 -3.82541,-1.04943 -4.03053,0.28503 -8.13396,2.58988 -12.89349,7.24215 -7.08293,6.92332 -9.02882,13.3818 -4.81425,15.9787 1.87229,1.15364 4.66089,0.7399 8.93829,-1.32618 z m -290.90073,0.6356 c 1.35959,-0.68736 2.48754,-2.49413 2.48754,-3.98456 0,-0.53643 -0.36186,-2.00363 -0.80417,-3.26046 -2.57631,-7.32087 -12.46186,-15.62646 -19.1631,-16.10035 -2.23361,-0.15794 -2.54038,-0.073 -3.8403,1.06318 -1.28813,1.1259 -1.41089,1.43208 -1.39147,3.47045 0.0625,6.56315 9.06788,16.28681 17.46499,18.85809 2.29372,0.70237 3.79175,0.68913 5.24651,-0.0466 z"
     id="path817"
     inkscape:connector-curvature="0" />
</svg>
