<?xml version="1.0" encoding="UTF-8" standalone="no"?>
<!-- Created with Inkscape (http://www.inkscape.org/) -->

<svg
   xmlns:dc="http://purl.org/dc/elements/1.1/"
   xmlns:cc="http://creativecommons.org/ns#"
   xmlns:rdf="http://www.w3.org/1999/02/22-rdf-syntax-ns#"
   xmlns:svg="http://www.w3.org/2000/svg"
   xmlns="http://www.w3.org/2000/svg"
   xmlns:sodipodi="http://sodipodi.sourceforge.net/DTD/sodipodi-0.dtd"
   xmlns:inkscape="http://www.inkscape.org/namespaces/inkscape"
   version="1.1"
   id="svg2"
   width="500"
   height="500"
   viewBox="0 0 500.00001 500"
   sodipodi:docname="icon_gwak.svg"
   inkscape:version="0.92.4 (5da689c313, 2019-01-14)">
  <metadata
     id="metadata8">
    <rdf:RDF>
      <cc:Work
         rdf:about="">
        <dc:format>image/svg+xml</dc:format>
        <dc:type
           rdf:resource="http://purl.org/dc/dcmitype/StillImage" />
        <dc:title></dc:title>
      </cc:Work>
    </rdf:RDF>
  </metadata>
  <defs
     id="defs6" />
  <sodipodi:namedview
     pagecolor="#ffffff"
     bordercolor="#666666"
     borderopacity="1"
     objecttolerance="10"
     gridtolerance="10"
     guidetolerance="10"
     inkscape:pageopacity="0"
     inkscape:pageshadow="2"
     inkscape:window-width="1920"
     inkscape:window-height="1017"
     id="namedview4"
     showgrid="false"
     fit-margin-top="0"
     fit-margin-left="0"
     fit-margin-right="0"
     fit-margin-bottom="0"
     inkscape:zoom="1.1818911"
     inkscape:cx="215.72862"
     inkscape:cy="190.3261"
     inkscape:window-x="-8"
     inkscape:window-y="-8"
     inkscape:window-maximized="1"
     inkscape:current-layer="svg2" />
  <path
     style="fill:#000000;stroke-width:1.61083591"
     d="m 11.097296,497.34478 c -5.6749805,-3.78814 -7.9998805,-7.0902 -7.9998805,-11.36229 0,-2.04813 -0.72397,-3.72388 -1.60882,-3.72388 -1.06568999,0 -1.56503999,-78.27104 -1.47912999,-231.8475 l 0.12971,-231.847529 3.49015999,-6.45141 C 10.731286,-1.0154791 -10.359704,0.02110086 249.70108,0.01828086 c 254.04999,-0.003 238.36803,-0.63392 245.85897,9.89534004 l 3.85901,5.4242501 0.4736,229.831469 c 0.26043,126.4073 0.0302,232.93991 -0.50874,236.73908 -0.70144,4.9322 -2.57758,8.50684 -6.56037,12.49961 L 487.24554,500 H 251.16034 C 34.665526,500 14.745036,499.77974 11.097296,497.34478 Z M 486.45724,485.12546 c 2.23843,-3.20388 2.50444,-28.15839 2.50444,-234.96928 V 18.771471 l -3.49809,-3.73286 -3.49808,-3.73287 H 250.30004 c -213.309454,0 -231.898574,0.21149 -234.607564,2.66925 -2.82443,2.56247 -2.94213,11.99355 -2.94213,235.752669 0,214.6232 0.21086,233.31702 2.66259,236.03291 2.5561,2.83151 11.97724,2.94945 235.601184,2.94945 h 232.93864 z m -282.25275,-10.12005 -3.88786,-4.14881 36.10425,-36.22152 36.10425,-36.22154 4.02654,4.03663 4.02656,4.03663 -36.24293,36.33374 -36.24293,36.33373 z m 88.47524,-88.71751 -3.88486,-4.14559 25.83219,-25.89689 25.83218,-25.89688 4.18113,3.88465 4.18114,3.88465 -26.12846,26.15784 -26.12847,26.15782 z m -155.97001,-67.07074 -69.501944,-69.49603 70.327574,-70.1849 70.32759,-70.1849 44.01474,44.10312 44.01473,44.10313 22.19954,-22.21254 22.19952,-22.21254 3.50552,3.74082 3.50555,3.74081 -26.11643,26.14579 -26.11643,26.14577 -43.41535,-43.54651 C 227.77589,145.40859 207.64304,126.0118 206.9147,126.2552 205.09499,126.86329 83.538516,248.64045 83.538516,249.85537 c 0,0.53606 27.872744,28.91017 61.939434,63.05356 l 61.93943,62.07888 58.72222,-58.85276 c 32.29722,-32.36901 58.72249,-59.21937 58.72283,-59.66745 3.4e-4,-0.44812 -27.51052,-0.61632 -61.13524,-0.37383 l -61.13585,0.44086 v -6.48907 -6.48907 h 75.20572 75.20574 l -72.38359,72.57835 c -39.81097,39.9181 -72.83898,72.57836 -73.39557,72.57836 -0.55659,0 -32.28785,-31.27322 -70.51392,-69.49604 z m 221.94236,0.95515 -3.88728,-4.14819 32.89642,-33.00828 32.89642,-33.0083 -33.42403,-33.53628 -33.42403,-33.5363 4.13813,-3.89731 4.13813,-3.89731 37.34022,37.43378 37.34023,37.43378 -37.06344,37.15631 -37.06347,37.15631 z m -99.63991,-232.143709 -58.56513,-58.72838 2.71806,-4.15868 c 1.49493,-2.28728 3.24806,-4.15868 3.89586,-4.15868 0.64779,0 27.58888,26.48471 59.86912,58.85492 l 58.69133,58.854929 -4.02206,4.03213 -4.02205,4.03213 z"
     id="path12"
     inkscape:connector-curvature="0" />
</svg>
