<?xml version="1.0" encoding="UTF-8" standalone="no"?>
<!-- Created with Inkscape (http://www.inkscape.org/) -->

<svg
   xmlns:dc="http://purl.org/dc/elements/1.1/"
   xmlns:cc="http://creativecommons.org/ns#"
   xmlns:rdf="http://www.w3.org/1999/02/22-rdf-syntax-ns#"
   xmlns:svg="http://www.w3.org/2000/svg"
   xmlns="http://www.w3.org/2000/svg"
   xmlns:sodipodi="http://sodipodi.sourceforge.net/DTD/sodipodi-0.dtd"
   xmlns:inkscape="http://www.inkscape.org/namespaces/inkscape"
   width="500"
   height="500"
   viewBox="0 0 132.29166 132.29167"
   version="1.1"
   id="svg8"
   inkscape:version="0.92.4 (5da689c313, 2019-01-14)"
   sodipodi:docname="csslang.svg">
  <defs
     id="defs2" />
  <sodipodi:namedview
     id="base"
     pagecolor="#ffffff"
     bordercolor="#666666"
     borderopacity="1.0"
     inkscape:pageopacity="0.0"
     inkscape:pageshadow="2"
     inkscape:zoom="1"
     inkscape:cx="448.41924"
     inkscape:cy="157.54651"
     inkscape:document-units="mm"
     inkscape:current-layer="layer1"
     showgrid="false"
     units="px"
     inkscape:window-width="1920"
     inkscape:window-height="1017"
     inkscape:window-x="-8"
     inkscape:window-y="-8"
     inkscape:window-maximized="1" />
  <metadata
     id="metadata5">
    <rdf:RDF>
      <cc:Work
         rdf:about="">
        <dc:format>image/svg+xml</dc:format>
        <dc:type
           rdf:resource="http://purl.org/dc/dcmitype/StillImage" />
        <dc:title></dc:title>
      </cc:Work>
    </rdf:RDF>
  </metadata>
  <g
     inkscape:label="Calque 1"
     inkscape:groupmode="layer"
     id="layer1"
     transform="translate(0,-164.70832)">
    <path
       style="fill:none;stroke:#000000;stroke-width:7.9375;stroke-linecap:butt;stroke-linejoin:round;stroke-miterlimit:4;stroke-dasharray:none;stroke-opacity:1"
       d="m 3.96875,197.78124 62.177083,-29.10417 62.177087,29.10417 v 66.14583 L 66.145833,293.03124 3.96875,263.92707 Z"
       id="path10"
       inkscape:connector-curvature="0"
       sodipodi:nodetypes="ccccccc" />
    <path
       style="fill:none;fill-opacity:1;fill-rule:nonzero;stroke:#000000;stroke-width:5.21595097;stroke-linejoin:round;stroke-miterlimit:4;stroke-dasharray:none;stroke-opacity:1"
       id="path827"
       d="m 40.975724,244.08339 a 12.650652,23.898264 0 0 1 -14.566112,9.44268 12.650652,23.898264 0 0 1 -8.601451,-24.13104 12.650652,23.898264 0 0 1 10.109437,-21.94572 12.650652,23.898264 0 0 1 13.83946,12.7603"
       sodipodi:type="arc"
       sodipodi:open="true"
       sodipodi:start="0.58585567"
       sodipodi:end="5.8208238"
       sodipodi:ry="23.898264"
       sodipodi:rx="12.650652"
       sodipodi:cy="230.86974"
       sodipodi:cx="30.434704" />
    <path
       style="fill:none;stroke:#000000;stroke-width:0.26458332px;stroke-linecap:butt;stroke-linejoin:miter;stroke-opacity:1"
       d="M 66.145833,230.85415 Z"
       id="path1386"
       inkscape:connector-curvature="0" />
    <path
       id="path819-9"
       style="fill:none;stroke:#000000;stroke-width:5.10627031;stroke-miterlimit:4;stroke-dasharray:none;stroke-opacity:1"
       d="m 104.38704,230.85335 a 11.876616,11.952769 0 0 1 11.87653,11.90524 11.876616,11.952769 0 0 1 -11.78207,11.99992 11.876616,11.952769 0 0 1 -11.970219,-11.8098 m 12.121449,-12.09675 a 11.876615,11.952768 0 0 1 -10.986378,-7.41241 11.876615,11.952768 0 0 1 2.639834,-13.04374 11.876615,11.952768 0 0 1 12.991924,-2.49714 11.876615,11.952768 0 0 1 7.23036,11.14661"
       inkscape:connector-curvature="0" />
    <path
       id="path819-9-3"
       style="fill:none;stroke:#000000;stroke-width:5.10626984;stroke-miterlimit:4;stroke-dasharray:none;stroke-opacity:1"
       d="m 66.995178,230.85335 a 11.876614,11.952769 0 0 1 11.876525,11.90524 11.876614,11.952769 0 0 1 -11.782071,11.99992 11.876614,11.952769 0 0 1 -11.970223,-11.8098 m 12.12146,-12.09675 a 11.876613,11.952768 0 0 1 -10.986385,-7.41241 11.876613,11.952768 0 0 1 2.639833,-13.04374 11.876613,11.952768 0 0 1 12.991928,-2.49714 11.876613,11.952768 0 0 1 7.230353,11.14661"
       inkscape:connector-curvature="0" />
  </g>
</svg>
