<?xml version="1.0" encoding="UTF-8" standalone="no"?>
<!-- Created with Inkscape (http://www.inkscape.org/) -->

<svg
   xmlns:dc="http://purl.org/dc/elements/1.1/"
   xmlns:cc="http://creativecommons.org/ns#"
   xmlns:rdf="http://www.w3.org/1999/02/22-rdf-syntax-ns#"
   xmlns:svg="http://www.w3.org/2000/svg"
   xmlns="http://www.w3.org/2000/svg"
   xmlns:sodipodi="http://sodipodi.sourceforge.net/DTD/sodipodi-0.dtd"
   xmlns:inkscape="http://www.inkscape.org/namespaces/inkscape"
   width="670"
   height="670"
   viewBox="0 0 177.27083 177.27084"
   version="1.1"
   id="svg8"
   inkscape:version="0.92.4 (5da689c313, 2019-01-14)"
   sodipodi:docname="lang_css.svg"
   inkscape:export-filename="C:\Users\bgavalda\Documents\Workshop\BaptisteGavalda.github.io\icons\lang_c.png"
   inkscape:export-xdpi="96"
   inkscape:export-ydpi="96">
  <defs
     id="defs2" />
  <sodipodi:namedview
     id="base"
     pagecolor="#ffffff"
     bordercolor="#666666"
     borderopacity="1.0"
     inkscape:pageopacity="0.0"
     inkscape:pageshadow="2"
     inkscape:zoom="0.72979752"
     inkscape:cx="70.603722"
     inkscape:cy="290.22915"
     inkscape:document-units="mm"
     inkscape:current-layer="layer1"
     showgrid="true"
     units="px"
     inkscape:window-width="1920"
     inkscape:window-height="1017"
     inkscape:window-x="-8"
     inkscape:window-y="-8"
     inkscape:window-maximized="1">
    <inkscape:grid
       type="xygrid"
       id="grid4538" />
  </sodipodi:namedview>
  <metadata
     id="metadata5">
    <rdf:RDF>
      <cc:Work
         rdf:about="">
        <dc:format>image/svg+xml</dc:format>
        <dc:type
           rdf:resource="http://purl.org/dc/dcmitype/StillImage" />
        <dc:title></dc:title>
      </cc:Work>
    </rdf:RDF>
  </metadata>
  <g
     inkscape:label="Calque 1"
     inkscape:groupmode="layer"
     id="layer1"
     transform="translate(0,-119.72915)">
    <path
       style="fill:none;stroke:#000000;stroke-width:7.9375;stroke-linecap:butt;stroke-linejoin:round;stroke-miterlimit:4;stroke-dasharray:none;stroke-opacity:1"
       d="m 26.458343,174.31743 62.177076,-29.10417 62.177071,29.10431 v 66.14569 L 88.635422,269.56743 26.458339,240.46326 Z"
       id="path10"
       inkscape:connector-curvature="0"
       sodipodi:nodetypes="ccccccc" />
    <path
       style="fill:none;stroke:#000000;stroke-width:0.26458332px;stroke-linecap:butt;stroke-linejoin:miter;stroke-opacity:1"
       d="M 62.17708,233.84868 Z"
       id="path1386"
       inkscape:connector-curvature="0" />
    <path
       style="fill:#000000;stroke:#000000;stroke-width:5.29166651;stroke-linecap:round;stroke-linejoin:round;stroke-miterlimit:4;stroke-dasharray:none;stroke-opacity:1"
       d="m 162.71875,172.99451 10.58334,-5.29167 v 79.375 l -10.58334,-5.29166 z"
       id="path831"
       inkscape:connector-curvature="0"
       sodipodi:nodetypes="ccccc" />
    <path
       style="fill:none;stroke:#000000;stroke-width:5.29166651;stroke-linecap:round;stroke-linejoin:round;stroke-miterlimit:4;stroke-dasharray:none;stroke-opacity:1"
       d="m 14.552087,241.78617 -10.5833403,5.29167 v -79.375 l 10.5833403,5.29166 z"
       id="path831-6"
       inkscape:connector-curvature="0"
       sodipodi:nodetypes="ccccc" />
    <path
       style="fill:none;stroke:#000000;stroke-width:5.29166651;stroke-linecap:round;stroke-linejoin:round;stroke-miterlimit:4;stroke-dasharray:none;stroke-opacity:1"
       d="m 80.086313,133.85839 -0.08363,-11.83226 -70.7425063,35.99847 9.5159563,7.03246 z"
       id="path831-6-7-5"
       inkscape:connector-curvature="0"
       sodipodi:nodetypes="ccccc" />
    <path
       style="fill:#000000;stroke:#000000;stroke-width:5.29166651;stroke-linecap:round;stroke-linejoin:round;stroke-miterlimit:4;stroke-dasharray:none;stroke-opacity:1"
       d="m 96.572917,133.85839 0.0836,-11.83226 70.742513,35.99847 -9.51596,7.03246 z"
       id="path831-6-7-5-6"
       inkscape:connector-curvature="0"
       sodipodi:nodetypes="ccccc" />
    <path
       style="fill:none;stroke:#000000;stroke-width:5.29166651;stroke-linecap:round;stroke-linejoin:round;stroke-miterlimit:4;stroke-dasharray:none;stroke-opacity:1"
       d="m 96.572917,282.87074 0.0836,11.83227 70.742503,-35.99848 -9.51595,-7.03245 z"
       id="path831-6-7-5-5"
       inkscape:connector-curvature="0"
       sodipodi:nodetypes="ccccc" />
    <path
       style="fill:none;stroke:#000000;stroke-width:5.29166651;stroke-linecap:round;stroke-linejoin:round;stroke-miterlimit:4;stroke-dasharray:none;stroke-opacity:1"
       d="m 80.086266,282.87074 -0.0836,11.83227 -70.7424893,-35.99848 9.5159403,-7.03245 z"
       id="path831-6-7-5-5-1"
       inkscape:connector-curvature="0"
       sodipodi:nodetypes="ccccc" />
    <path
       style="fill:none;fill-opacity:1;fill-rule:nonzero;stroke:#000000;stroke-width:5.21595097;stroke-linejoin:round;stroke-miterlimit:4;stroke-dasharray:none;stroke-opacity:1"
       id="path827"
       d="m 62.142392,221.59379 a 12.650652,23.898264 0 0 1 -14.566112,9.44269 12.650652,23.898264 0 0 1 -8.601451,-24.13105 12.650652,23.898264 0 0 1 10.109437,-21.94572 12.650652,23.898264 0 0 1 13.83946,12.7603"
       sodipodi:type="arc"
       sodipodi:open="true"
       sodipodi:start="0.58585567"
       sodipodi:end="5.8208238"
       sodipodi:ry="23.898264"
       sodipodi:rx="12.650652"
       sodipodi:cy="208.38014"
       sodipodi:cx="51.601372" />
    <path
       id="path819-9"
       style="fill:none;stroke:#000000;stroke-width:5.10627031;stroke-miterlimit:4;stroke-dasharray:none;stroke-opacity:1"
       d="m 125.55371,208.36376 a 11.876616,11.952769 0 0 1 11.87653,11.90524 11.876616,11.952769 0 0 1 -11.78207,11.99992 11.876616,11.952769 0 0 1 -11.97022,-11.8098 m 12.12145,-12.09675 a 11.876615,11.952768 0 0 1 -10.98638,-7.41241 11.876615,11.952768 0 0 1 2.63983,-13.04374 11.876615,11.952768 0 0 1 12.99193,-2.49714 11.876615,11.952768 0 0 1 7.23036,11.14661"
       inkscape:connector-curvature="0" />
    <path
       id="path819-9-3"
       style="fill:none;stroke:#000000;stroke-width:5.10626984;stroke-miterlimit:4;stroke-dasharray:none;stroke-opacity:1"
       d="M 88.161845,208.36376 A 11.876614,11.952769 0 0 1 100.03837,220.269 11.876614,11.952769 0 0 1 88.256299,232.26892 11.876614,11.952769 0 0 1 76.286075,220.45912 m 12.121462,-12.09675 a 11.876613,11.952768 0 0 1 -10.986386,-7.41241 11.876613,11.952768 0 0 1 2.639832,-13.04374 11.876613,11.952768 0 0 1 12.991928,-2.49714 11.876613,11.952768 0 0 1 7.230359,11.14661"
       inkscape:connector-curvature="0" />
  </g>
</svg>
